# Blender v2.93.0 OBJ File: 'plains.blend'
# www.blender.org
mtllib plains.mtl
o Grid
v -64.000000 0.000000 64.000000
v -51.200001 0.000000 64.000000
v -38.400002 0.000000 64.000000
v -25.599998 0.000000 64.000000
v -12.799999 0.000000 64.000000
v 0.000000 0.000000 64.000000
v 12.800003 0.000000 64.000000
v 25.599998 0.000000 64.000000
v 38.400002 0.000000 64.000000
v 51.200005 0.000000 64.000000
v 64.000000 0.000000 64.000000
v -64.000000 0.000000 51.200001
v -51.200001 0.000000 51.200001
v -38.400002 0.000000 51.200001
v -25.599998 0.000000 51.200001
v -12.799999 0.000000 51.200001
v 0.000000 0.000000 51.200001
v 12.800003 0.000000 51.200001
v 25.599998 1.819006 51.200001
v 38.400002 1.819006 51.200001
v 51.200005 0.000000 51.200001
v 64.000000 0.000000 51.200001
v -64.000000 0.000000 38.400002
v -51.200001 1.102392 38.400002
v -38.400002 1.102392 38.400002
v -25.599998 1.102392 38.400002
v -12.799999 0.000000 38.400002
v 0.000000 0.000000 38.400002
v 12.800003 1.819006 38.400002
v 25.599998 1.819006 38.400002
v 38.400002 1.819006 38.400002
v 51.200005 0.000000 38.400002
v 64.000000 0.000000 38.400002
v -64.000000 0.000000 25.599998
v -51.200001 1.102392 25.599998
v -38.400002 1.102392 25.599998
v -25.599998 1.102392 25.599998
v -12.799999 0.000000 25.599998
v 0.000000 0.000000 25.599998
v 12.800003 1.819006 25.599998
v 25.599998 1.819006 25.599998
v 38.400002 1.819006 25.599998
v 51.200005 0.000000 25.599998
v 64.000000 0.000000 25.599998
v -64.000000 0.000000 12.799999
v -51.200001 1.102392 12.799999
v -38.400002 1.102392 12.799999
v -25.599998 1.102392 12.799999
v -12.799999 0.000000 12.799999
v 0.000000 0.000000 12.799999
v 12.800003 0.000000 12.799999
v 25.599998 0.000000 12.799999
v 38.400002 0.000000 12.799999
v 51.200005 0.000000 12.799999
v 64.000000 0.000000 12.799999
v -64.000000 0.000000 0.000000
v -51.200001 1.102392 0.000000
v -38.400002 1.102392 0.000000
v -25.599998 1.102392 0.000000
v -12.799999 0.000000 0.000000
v 0.000000 0.000000 0.000000
v 12.800003 0.000000 0.000000
v 25.599998 0.000000 0.000000
v 38.400002 0.000000 0.000000
v 51.200005 0.000000 0.000000
v 64.000000 0.000000 0.000000
v -64.000000 0.000000 -12.800003
v -51.200001 0.000000 -12.800003
v -38.400002 1.102392 -12.800003
v -25.599998 1.102392 -12.800003
v -12.799999 0.000000 -12.800003
v 0.000000 1.892526 -12.800003
v 12.800003 1.892526 -12.800003
v 25.599998 1.892526 -12.800003
v 38.400002 1.892526 -12.800003
v 51.200005 0.000000 -12.800003
v 64.000000 0.000000 -12.800003
v -64.000000 0.000000 -25.599998
v -51.200001 0.000000 -25.599998
v -38.400002 0.000000 -25.599998
v -25.599998 0.000000 -25.599998
v -12.799999 1.892526 -25.599998
v 0.000000 1.892526 -25.599998
v 12.800003 1.892526 -25.599998
v 25.599998 1.892526 -25.599998
v 38.400002 1.892526 -25.599998
v 51.200005 0.000000 -25.599998
v 64.000000 0.000000 -25.599998
v -64.000000 0.000000 -38.400002
v -51.200001 0.000000 -38.400002
v -38.400002 0.000000 -38.400002
v -25.599998 0.000000 -38.400002
v -12.799999 0.000000 -38.400002
v 0.000000 1.892526 -38.400002
v 12.800003 1.892526 -38.400002
v 25.599998 1.892526 -38.400002
v 38.400002 1.892526 -38.400002
v 51.200005 0.000000 -38.400002
v 64.000000 0.000000 -38.400002
v -64.000000 0.000000 -51.200005
v -51.200001 0.000000 -51.200005
v -38.400002 0.000000 -51.200005
v -25.599998 0.000000 -51.200005
v -12.799999 0.000000 -51.200005
v 0.000000 0.000000 -51.200005
v 12.800003 0.000000 -51.200005
v 25.599998 0.000000 -51.200005
v 38.400002 0.000000 -51.200005
v 51.200005 0.000000 -51.200005
v 64.000000 0.000000 -51.200005
v -64.000000 0.000000 -64.000000
v -51.200001 0.000000 -64.000000
v -38.400002 0.000000 -64.000000
v -25.599998 0.000000 -64.000000
v -12.799999 0.000000 -64.000000
v 0.000000 0.000000 -64.000000
v 12.800003 0.000000 -64.000000
v 25.599998 0.000000 -64.000000
v 38.400002 0.000000 -64.000000
v 51.200005 0.000000 -64.000000
v 64.000000 0.000000 -64.000000
vt 0.000000 0.000000
vt 0.100000 0.000000
vt 0.100000 0.100000
vt 0.000000 0.100000
vt 0.200000 0.000000
vt 0.200000 0.100000
vt 0.300000 0.000000
vt 0.300000 0.100000
vt 0.400000 0.000000
vt 0.400000 0.100000
vt 0.500000 0.000000
vt 0.500000 0.100000
vt 0.600000 0.000000
vt 0.600000 0.100000
vt 0.700000 0.000000
vt 0.700000 0.100000
vt 0.800000 0.000000
vt 0.800000 0.100000
vt 0.900000 0.000000
vt 0.900000 0.100000
vt 1.000000 0.000000
vt 1.000000 0.100000
vt 0.100000 0.200000
vt 0.000000 0.200000
vt 0.200000 0.200000
vt 0.300000 0.200000
vt 0.400000 0.200000
vt 0.500000 0.200000
vt 0.600000 0.200000
vt 0.700000 0.200000
vt 0.800000 0.200000
vt 0.900000 0.200000
vt 1.000000 0.200000
vt 0.100000 0.300000
vt 0.000000 0.300000
vt 0.200000 0.300000
vt 0.300000 0.300000
vt 0.400000 0.300000
vt 0.500000 0.300000
vt 0.600000 0.300000
vt 0.700000 0.300000
vt 0.800000 0.300000
vt 0.900000 0.300000
vt 1.000000 0.300000
vt 0.100000 0.400000
vt 0.000000 0.400000
vt 0.200000 0.400000
vt 0.300000 0.400000
vt 0.400000 0.400000
vt 0.500000 0.400000
vt 0.600000 0.400000
vt 0.700000 0.400000
vt 0.800000 0.400000
vt 0.900000 0.400000
vt 1.000000 0.400000
vt 0.100000 0.500000
vt 0.000000 0.500000
vt 0.200000 0.500000
vt 0.300000 0.500000
vt 0.400000 0.500000
vt 0.500000 0.500000
vt 0.600000 0.500000
vt 0.700000 0.500000
vt 0.800000 0.500000
vt 0.900000 0.500000
vt 1.000000 0.500000
vt 0.100000 0.600000
vt 0.000000 0.600000
vt 0.200000 0.600000
vt 0.300000 0.600000
vt 0.400000 0.600000
vt 0.500000 0.600000
vt 0.600000 0.600000
vt 0.700000 0.600000
vt 0.800000 0.600000
vt 0.900000 0.600000
vt 1.000000 0.600000
vt 0.100000 0.700000
vt 0.000000 0.700000
vt 0.200000 0.700000
vt 0.300000 0.700000
vt 0.400000 0.700000
vt 0.500000 0.700000
vt 0.600000 0.700000
vt 0.700000 0.700000
vt 0.800000 0.700000
vt 0.900000 0.700000
vt 1.000000 0.700000
vt 0.100000 0.800000
vt 0.000000 0.800000
vt 0.200000 0.800000
vt 0.300000 0.800000
vt 0.400000 0.800000
vt 0.500000 0.800000
vt 0.600000 0.800000
vt 0.700000 0.800000
vt 0.800000 0.800000
vt 0.900000 0.800000
vt 1.000000 0.800000
vt 0.100000 0.900000
vt 0.000000 0.900000
vt 0.200000 0.900000
vt 0.300000 0.900000
vt 0.400000 0.900000
vt 0.500000 0.900000
vt 0.600000 0.900000
vt 0.700000 0.900000
vt 0.800000 0.900000
vt 0.900000 0.900000
vt 1.000000 0.900000
vt 0.100000 1.000000
vt 0.000000 1.000000
vt 0.200000 1.000000
vt 0.300000 1.000000
vt 0.400000 1.000000
vt 0.500000 1.000000
vt 0.600000 1.000000
vt 0.700000 1.000000
vt 0.800000 1.000000
vt 0.900000 1.000000
vt 1.000000 1.000000
vn 0.0000 1.0000 0.0000
vn -0.0107 0.9994 0.0322
vn -0.0215 0.9995 0.0215
vn 0.0000 0.9991 0.0429
vn 0.0107 0.9994 0.0322
vn 0.0107 0.9999 0.0107
vn -0.0177 0.9997 0.0177
vn -0.0354 0.9987 0.0354
vn -0.0530 0.9972 0.0530
vn -0.0354 0.9937 0.1058
vn -0.0353 0.9969 0.0707
vn 0.0354 0.9937 0.1058
vn 0.0529 0.9972 0.0529
vn 0.0354 0.9987 0.0354
vn 0.0529 0.9984 0.0177
vn -0.0322 0.9989 0.0322
vn -0.0644 0.9977 0.0215
vn 0.0322 0.9989 0.0322
vn 0.0322 0.9994 0.0107
vn -0.0529 0.9984 0.0177
vn -0.0707 0.9969 0.0353
vn 0.0705 0.9975 0.0000
vn -0.0429 0.9991 0.0000
vn -0.0858 0.9963 0.0000
vn 0.0429 0.9991 0.0000
vn -0.0529 0.9984 -0.0177
vn -0.0529 0.9972 -0.0529
vn 0.0000 0.9975 -0.0705
vn 0.0529 0.9972 -0.0529
vn 0.0529 0.9984 -0.0177
vn -0.0177 0.9997 -0.0177
vn -0.0177 0.9984 -0.0529
vn 0.0177 0.9984 -0.0529
vn 0.0177 0.9997 -0.0177
vn -0.0430 0.9988 -0.0215
vn -0.0644 0.9977 -0.0215
vn -0.0107 0.9999 -0.0107
vn 0.0246 0.9995 0.0184
vn -0.0184 0.9983 0.0551
vn 0.0000 0.9973 0.0733
vn 0.0184 0.9983 0.0551
vn 0.0184 0.9996 0.0184
vn -0.0322 0.9989 -0.0322
vn -0.0215 0.9995 -0.0215
vn -0.0215 0.9988 -0.0430
vn 0.0138 0.9998 -0.0138
vn -0.0229 0.9987 0.0445
vn -0.0367 0.9966 0.0735
vn 0.0551 0.9969 0.0551
vn 0.0551 0.9983 0.0184
vn -0.0107 0.9994 -0.0322
vn -0.0261 0.9991 -0.0323
vn -0.0631 0.9979 -0.0106
vn -0.0368 0.9993 0.0000
vn 0.0733 0.9973 0.0000
vn -0.0184 0.9996 -0.0184
vn -0.0551 0.9969 -0.0551
vn -0.0367 0.9966 -0.0735
vn 0.0000 0.9973 -0.0733
vn 0.0551 0.9969 -0.0551
vn 0.0551 0.9983 -0.0184
vn -0.0184 0.9983 -0.0551
vn 0.0184 0.9983 -0.0551
vn 0.0184 0.9996 -0.0184
usemtl Material.001
s 1
f 1/1/1 2/2/1 13/3/2 12/4/3
f 2/2/1 3/5/1 14/6/4 13/3/2
f 3/5/1 4/7/1 15/8/5 14/6/4
f 4/7/1 5/9/1 16/10/6 15/8/5
f 5/9/1 6/11/1 17/12/7 16/10/6
f 6/11/1 7/13/8 18/14/9 17/12/7
f 7/13/8 8/15/10 19/16/11 18/14/9
f 8/15/10 9/17/12 20/18/13 19/16/11
f 9/17/12 10/19/14 21/20/15 20/18/13
f 10/19/14 11/21/1 22/22/1 21/20/15
f 12/4/3 13/3/2 24/23/16 23/24/17
f 13/3/2 14/6/4 25/25/4 24/23/16
f 14/6/4 15/8/5 26/26/18 25/25/4
f 15/8/5 16/10/6 27/27/19 26/26/18
f 16/10/6 17/12/7 28/28/20 27/27/19
f 17/12/7 18/14/9 29/29/21 28/28/20
f 18/14/9 19/16/11 30/30/7 29/29/21
f 19/16/11 20/18/13 31/31/22 30/30/7
f 20/18/13 21/20/15 32/32/22 31/31/22
f 21/20/15 22/22/1 33/33/1 32/32/22
f 23/24/17 24/23/16 35/34/23 34/35/24
f 24/23/16 25/25/4 36/36/1 35/34/23
f 25/25/4 26/26/18 37/37/25 36/36/1
f 26/26/18 27/27/19 38/38/25 37/37/25
f 27/27/19 28/28/20 39/39/26 38/38/25
f 28/28/20 29/29/21 40/40/27 39/39/26
f 29/29/21 30/30/7 41/41/28 40/40/27
f 30/30/7 31/31/22 42/42/29 41/41/28
f 31/31/22 32/32/22 43/43/30 42/42/29
f 32/32/22 33/33/1 44/44/1 43/43/30
f 34/35/24 35/34/23 46/45/23 45/46/24
f 35/34/23 36/36/1 47/47/1 46/45/23
f 36/36/1 37/37/25 48/48/25 47/47/1
f 37/37/25 38/38/25 49/49/25 48/48/25
f 38/38/25 39/39/26 50/50/31 49/49/25
f 39/39/26 40/40/27 51/51/32 50/50/31
f 40/40/27 41/41/28 52/52/28 51/51/32
f 41/41/28 42/42/29 53/53/33 52/52/28
f 42/42/29 43/43/30 54/54/34 53/53/33
f 43/43/30 44/44/1 55/55/1 54/54/34
f 45/46/24 46/45/23 57/56/35 56/57/36
f 46/45/23 47/47/1 58/58/37 57/56/35
f 47/47/1 48/48/25 59/59/25 58/58/37
f 48/48/25 49/49/25 60/60/38 59/59/25
f 49/49/25 50/50/31 61/61/39 60/60/38
f 50/50/31 51/51/32 62/62/40 61/61/39
f 51/51/32 52/52/28 63/63/40 62/62/40
f 52/52/28 53/53/33 64/64/41 63/63/40
f 53/53/33 54/54/34 65/65/42 64/64/41
f 54/54/34 55/55/1 66/66/1 65/65/42
f 56/57/36 57/56/35 68/67/43 67/68/44
f 57/56/35 58/58/37 69/69/45 68/67/43
f 58/58/37 59/59/25 70/70/46 69/69/45
f 59/59/25 60/60/38 71/71/47 70/70/46
f 60/60/38 61/61/39 72/72/48 71/71/47
f 61/61/39 62/62/40 73/73/40 72/72/48
f 62/62/40 63/63/40 74/74/40 73/73/40
f 63/63/40 64/64/41 75/75/49 74/74/40
f 64/64/41 65/65/42 76/76/50 75/75/49
f 65/65/42 66/66/1 77/77/1 76/76/50
f 67/68/44 68/67/43 79/78/37 78/79/1
f 68/67/43 69/69/45 80/80/51 79/78/37
f 69/69/45 70/70/46 81/81/52 80/80/51
f 70/70/46 71/71/47 82/82/53 81/81/52
f 71/71/47 72/72/48 83/83/54 82/82/53
f 72/72/48 73/73/40 84/84/1 83/83/54
f 73/73/40 74/74/40 85/85/1 84/84/1
f 74/74/40 75/75/49 86/86/55 85/85/1
f 75/75/49 76/76/50 87/87/55 86/86/55
f 76/76/50 77/77/1 88/88/1 87/87/55
f 78/79/1 79/78/37 90/89/1 89/90/1
f 79/78/37 80/80/51 91/91/1 90/89/1
f 80/80/51 81/81/52 92/92/56 91/91/1
f 81/81/52 82/82/53 93/93/57 92/92/56
f 82/82/53 83/83/54 94/94/58 93/93/57
f 83/83/54 84/84/1 95/95/59 94/94/58
f 84/84/1 85/85/1 96/96/59 95/95/59
f 85/85/1 86/86/55 97/97/60 96/96/59
f 86/86/55 87/87/55 98/98/61 97/97/60
f 87/87/55 88/88/1 99/99/1 98/98/61
f 89/90/1 90/89/1 101/100/1 100/101/1
f 90/89/1 91/91/1 102/102/1 101/100/1
f 91/91/1 92/92/56 103/103/1 102/102/1
f 92/92/56 93/93/57 104/104/56 103/103/1
f 93/93/57 94/94/58 105/105/62 104/104/56
f 94/94/58 95/95/59 106/106/59 105/105/62
f 95/95/59 96/96/59 107/107/59 106/106/59
f 96/96/59 97/97/60 108/108/63 107/107/59
f 97/97/60 98/98/61 109/109/64 108/108/63
f 98/98/61 99/99/1 110/110/1 109/109/64
f 100/101/1 101/100/1 112/111/1 111/112/1
f 101/100/1 102/102/1 113/113/1 112/111/1
f 102/102/1 103/103/1 114/114/1 113/113/1
f 103/103/1 104/104/56 115/115/1 114/114/1
f 104/104/56 105/105/62 116/116/1 115/115/1
f 105/105/62 106/106/59 117/117/1 116/116/1
f 106/106/59 107/107/59 118/118/1 117/117/1
f 107/107/59 108/108/63 119/119/1 118/118/1
f 108/108/63 109/109/64 120/120/1 119/119/1
f 109/109/64 110/110/1 121/121/1 120/120/1
